<svg xmlns="http://www.w3.org/2000/svg" xmlns:xlink="http://www.w3.org/1999/xlink" width="512" zoomAndPan="magnify" viewBox="0 0 384 383.999986" height="512" preserveAspectRatio="xMidYMid meet" version="1.0"><defs><clipPath id="abe4ec514d"><path d="M 23.101562 23.101562 L 360.738281 23.101562 L 360.738281 360.738281 L 23.101562 360.738281 Z M 23.101562 23.101562 " clip-rule="nonzero"/></clipPath><clipPath id="eb3fdd41d6"><path d="M 23.25 23.09375 L 360.75 23.09375 L 360.75 360.59375 L 23.25 360.59375 Z M 23.25 23.09375 " clip-rule="nonzero"/></clipPath><clipPath id="4f089fb854"><path d="M 193.796875 134 L 308.84375 134 L 308.84375 248.84375 L 193.796875 248.84375 Z M 193.796875 134 " clip-rule="nonzero"/></clipPath><clipPath id="d6f8a8d70a"><path d="M 72 134 L 187.980469 134 L 187.980469 249.042969 L 72 249.042969 Z M 72 134 " clip-rule="nonzero"/></clipPath></defs><g clip-path="url(#abe4ec514d)"><path fill="#ffffff" d="M 169.761719 32.28125 C 182 20.042969 201.839844 20.042969 214.078125 32.28125 L 351.539062 169.761719 C 363.777344 182 363.777344 201.820312 351.539062 214.035156 L 214.035156 351.539062 C 201.796875 363.777344 181.980469 363.777344 169.761719 351.539062 L 32.261719 214.035156 C 20.023438 201.796875 20.023438 181.980469 32.261719 169.761719 Z M 191.921875 43.972656 C 189.238281 43.972656 186.582031 45.007812 184.535156 47.035156 L 47.035156 184.535156 C 46.550781 185.019531 46.117188 185.546875 45.734375 186.117188 C 45.355469 186.6875 45.03125 187.289062 44.769531 187.921875 C 44.507812 188.554688 44.308594 189.207031 44.175781 189.882812 C 44.039062 190.554688 43.972656 191.230469 43.972656 191.921875 C 43.972656 192.605469 44.039062 193.285156 44.175781 193.957031 C 44.308594 194.632812 44.507812 195.285156 44.769531 195.917969 C 45.03125 196.550781 45.355469 197.152344 45.734375 197.722656 C 46.117188 198.292969 46.550781 198.820312 47.035156 199.304688 L 184.535156 336.804688 C 185.511719 337.789062 186.640625 338.542969 187.921875 339.074219 C 189.199219 339.601562 190.53125 339.871094 191.921875 339.867188 Z M 191.921875 43.972656 " fill-opacity="1" fill-rule="nonzero"/></g><g clip-path="url(#eb3fdd41d6)"><path fill="#000000" d="M 214.148438 32.269531 C 201.914062 20.035156 182.085938 20.035156 169.851562 32.269531 L 32.445312 169.695312 C 20.210938 181.929688 20.210938 201.738281 32.445312 213.949219 L 169.894531 351.398438 C 182.128906 363.632812 201.933594 363.632812 214.148438 351.398438 L 351.59375 213.949219 C 363.828125 201.714844 363.828125 181.910156 351.59375 169.695312 Z M 192 43.957031 C 194.679688 43.957031 197.335938 44.988281 199.382812 47.015625 L 336.828125 184.460938 C 337.3125 184.945312 337.746094 185.472656 338.128906 186.042969 C 338.507812 186.613281 338.832031 187.214844 339.09375 187.847656 C 339.355469 188.480469 339.554688 189.132812 339.6875 189.808594 C 339.820312 190.480469 339.886719 191.15625 339.886719 191.84375 C 339.886719 192.527344 339.820312 193.207031 339.6875 193.878906 C 339.554688 194.554688 339.355469 195.207031 339.09375 195.839844 C 338.832031 196.472656 338.507812 197.074219 338.128906 197.644531 C 337.746094 198.214844 337.3125 198.742188 336.828125 199.226562 L 199.382812 336.671875 C 198.40625 337.65625 197.277344 338.410156 195.996094 338.941406 C 194.71875 339.46875 193.386719 339.734375 192 339.730469 Z M 192 43.957031 " fill-opacity="1" fill-rule="nonzero"/></g><g clip-path="url(#4f089fb854)"><path fill="#000000" d="M 154.828125 248.804688 C 148.988281 248.804688 143.160156 246.582031 138.703125 242.121094 L 88.355469 191.773438 L 138.703125 141.429688 C 147.609375 132.519531 162.074219 132.519531 170.957031 141.429688 C 179.867188 150.335938 179.867188 164.777344 170.957031 173.683594 L 152.878906 191.773438 L 170.957031 209.867188 C 179.867188 218.773438 179.867188 233.214844 170.957031 242.121094 C 166.511719 246.582031 160.667969 248.804688 154.828125 248.804688 Z M 242.179688 248.804688 C 236.339844 248.804688 230.5 246.582031 226.050781 242.121094 C 217.140625 233.214844 217.140625 218.773438 226.050781 209.867188 L 244.128906 191.773438 L 226.050781 173.683594 C 217.140625 164.777344 217.140625 150.335938 226.050781 141.429688 C 234.9375 132.519531 249.398438 132.519531 258.308594 141.429688 L 308.65625 191.773438 L 258.308594 242.121094 C 253.859375 246.582031 248.019531 248.804688 242.179688 248.804688 Z M 242.179688 248.804688 " fill-opacity="1" fill-rule="nonzero"/></g><g clip-path="url(#d6f8a8d70a)"><path fill="#ffffff" d="M 139.390625 249.003906 C 133.546875 249.003906 127.714844 246.777344 123.25 242.3125 L 72.863281 191.925781 L 123.25 141.542969 C 132.167969 132.625 146.640625 132.625 155.535156 141.542969 C 164.449219 150.457031 164.449219 164.910156 155.535156 173.820312 L 137.441406 191.925781 L 155.535156 210.035156 C 164.449219 218.945312 164.449219 233.398438 155.535156 242.3125 C 151.082031 246.777344 145.238281 249.003906 139.390625 249.003906 Z M 226.808594 249.003906 C 220.964844 249.003906 215.121094 246.777344 210.671875 242.3125 C 201.753906 233.398438 201.753906 218.945312 210.671875 210.035156 L 228.761719 191.925781 L 210.671875 173.820312 C 201.753906 164.910156 201.753906 150.457031 210.671875 141.542969 C 219.5625 132.625 234.039062 132.625 242.949219 141.542969 L 293.339844 191.925781 L 242.949219 242.3125 C 238.5 246.777344 232.65625 249.003906 226.808594 249.003906 Z M 226.808594 249.003906 " fill-opacity="1" fill-rule="nonzero"/></g></svg>