<svg xmlns="http://www.w3.org/2000/svg" xmlns:xlink="http://www.w3.org/1999/xlink" width="512" zoomAndPan="magnify" viewBox="0 0 384 383.999986" height="512" preserveAspectRatio="xMidYMid meet" version="1.0"><defs><clipPath id="410c262e2f"><path d="M 23.25 23.25 L 360.75 23.25 L 360.75 360.75 L 23.25 360.75 Z M 23.25 23.25 " clip-rule="nonzero"/></clipPath><clipPath id="3d5e8d8e8d"><path d="M 75 134 L 190.046875 134 L 190.046875 249 L 75 249 Z M 75 134 " clip-rule="nonzero"/></clipPath><clipPath id="b3b7b629ae"><path d="M 193.953125 134 L 309 134 L 309 249 L 193.953125 249 Z M 193.953125 134 " clip-rule="nonzero"/></clipPath></defs><g clip-path="url(#410c262e2f)"><path fill="#ffffff" d="M 169.851562 32.425781 C 182.085938 20.191406 201.914062 20.191406 214.148438 32.425781 L 351.554688 169.851562 C 363.789062 182.085938 363.789062 201.894531 351.554688 214.105469 L 214.105469 351.554688 C 201.871094 363.789062 182.066406 363.789062 169.851562 351.554688 L 32.40625 214.105469 C 20.171875 201.871094 20.171875 182.066406 32.40625 169.851562 Z M 192 44.113281 C 189.320312 44.113281 186.664062 45.144531 184.617188 47.171875 L 47.171875 184.617188 C 46.6875 185.101562 46.253906 185.628906 45.871094 186.199219 C 45.492188 186.769531 45.167969 187.371094 44.90625 188.003906 C 44.644531 188.636719 44.445312 189.289062 44.3125 189.964844 C 44.179688 190.636719 44.113281 191.3125 44.113281 192 C 44.113281 192.683594 44.179688 193.363281 44.3125 194.035156 C 44.445312 194.710938 44.644531 195.363281 44.90625 195.996094 C 45.167969 196.628906 45.492188 197.230469 45.871094 197.800781 C 46.253906 198.371094 46.6875 198.898438 47.171875 199.382812 L 184.617188 336.828125 C 185.59375 337.8125 186.722656 338.566406 188.003906 339.097656 C 189.28125 339.625 190.613281 339.890625 192 339.886719 Z M 192 44.113281 " fill-opacity="1" fill-rule="nonzero"/><path fill="#000000" d="M 214.148438 32.425781 C 201.914062 20.191406 182.085938 20.191406 169.851562 32.425781 L 32.445312 169.851562 C 20.210938 182.085938 20.210938 201.894531 32.445312 214.105469 L 169.894531 351.554688 C 182.128906 363.789062 201.933594 363.789062 214.148438 351.554688 L 351.59375 214.105469 C 363.828125 201.871094 363.828125 182.066406 351.59375 169.851562 Z M 192 44.113281 C 194.679688 44.113281 197.335938 45.144531 199.382812 47.171875 L 336.828125 184.617188 C 337.3125 185.101562 337.746094 185.628906 338.128906 186.199219 C 338.507812 186.769531 338.832031 187.371094 339.09375 188.003906 C 339.355469 188.636719 339.554688 189.289062 339.6875 189.964844 C 339.820312 190.636719 339.886719 191.3125 339.886719 192 C 339.886719 192.683594 339.820312 193.363281 339.6875 194.035156 C 339.554688 194.710938 339.355469 195.363281 339.09375 195.996094 C 338.832031 196.628906 338.507812 197.230469 338.128906 197.800781 C 337.746094 198.371094 337.3125 198.898438 336.828125 199.382812 L 199.382812 336.828125 C 198.40625 337.8125 197.277344 338.566406 195.996094 339.097656 C 194.71875 339.625 193.386719 339.890625 192 339.886719 Z M 192 44.113281 " fill-opacity="1" fill-rule="nonzero"/></g><g clip-path="url(#3d5e8d8e8d)"><path fill="#ffffff" d="M 229.015625 248.960938 C 234.855469 248.960938 240.683594 246.738281 245.140625 242.277344 L 295.488281 191.929688 L 245.140625 141.585938 C 236.234375 132.675781 221.769531 132.675781 212.886719 141.585938 C 203.976562 150.492188 203.976562 164.933594 212.886719 173.839844 L 230.964844 191.929688 L 212.886719 210.023438 C 203.976562 218.929688 203.976562 233.371094 212.886719 242.277344 C 217.332031 246.738281 223.175781 248.960938 229.015625 248.960938 Z M 141.664062 248.960938 C 147.503906 248.960938 153.34375 246.738281 157.792969 242.277344 C 166.703125 233.371094 166.703125 218.929688 157.792969 210.023438 L 139.714844 191.929688 L 157.792969 173.839844 C 166.703125 164.933594 166.703125 150.492188 157.792969 141.585938 C 148.90625 132.675781 134.445312 132.675781 125.535156 141.585938 L 75.1875 191.929688 L 125.535156 242.277344 C 129.984375 246.738281 135.824219 248.960938 141.664062 248.960938 Z M 141.664062 248.960938 " fill-opacity="1" fill-rule="nonzero"/></g><g clip-path="url(#b3b7b629ae)"><path fill="#000000" d="M 154.984375 248.960938 C 149.144531 248.960938 143.316406 246.738281 138.859375 242.277344 L 88.511719 191.929688 L 138.859375 141.585938 C 147.765625 132.675781 162.230469 132.675781 171.113281 141.585938 C 180.023438 150.492188 180.023438 164.933594 171.113281 173.839844 L 153.035156 191.929688 L 171.113281 210.023438 C 180.023438 218.929688 180.023438 233.371094 171.113281 242.277344 C 166.667969 246.738281 160.824219 248.960938 154.984375 248.960938 Z M 242.335938 248.960938 C 236.496094 248.960938 230.65625 246.738281 226.207031 242.277344 C 217.296875 233.371094 217.296875 218.929688 226.207031 210.023438 L 244.285156 191.929688 L 226.207031 173.839844 C 217.296875 164.933594 217.296875 150.492188 226.207031 141.585938 C 235.09375 132.675781 249.554688 132.675781 258.464844 141.585938 L 308.8125 191.929688 L 258.464844 242.277344 C 254.015625 246.738281 248.175781 248.960938 242.335938 248.960938 Z M 242.335938 248.960938 " fill-opacity="1" fill-rule="nonzero"/></g></svg>