<?xml version="1.0" encoding="UTF-8" standalone="no"?>
<!-- Created with Inkscape (http://www.inkscape.org/) -->

<svg
   width="512"
   height="512"
   viewBox="0 0 512 512"
   version="1.1"
   id="svg1"
   xml:space="preserve"
   inkscape:version="1.3 (0e150ed6c4, 2023-07-21)"
   sodipodi:docname="Pincoder.svg"
   xmlns:inkscape="http://www.inkscape.org/namespaces/inkscape"
   xmlns:sodipodi="http://sodipodi.sourceforge.net/DTD/sodipodi-0.dtd"
   xmlns="http://www.w3.org/2000/svg"
   xmlns:svg="http://www.w3.org/2000/svg"><sodipodi:namedview
     id="namedview1"
     pagecolor="#ffffff"
     bordercolor="#000000"
     borderopacity="0.25"
     inkscape:showpageshadow="2"
     inkscape:pageopacity="0.0"
     inkscape:pagecheckerboard="0"
     inkscape:deskcolor="#d1d1d1"
     inkscape:document-units="px"
     inkscape:zoom="0.64126689"
     inkscape:cx="284.5929"
     inkscape:cy="226.89461"
     inkscape:window-width="1366"
     inkscape:window-height="705"
     inkscape:window-x="-8"
     inkscape:window-y="-8"
     inkscape:window-maximized="1"
     inkscape:current-layer="svg1" /><defs
     id="defs1"><clipPath
       id="608d98683a"><path
         d="m 23.25,23.25 h 337.5 v 337.5 H 23.25 Z m 0,0"
         clip-rule="nonzero"
         id="path1-1" /></clipPath></defs><g
     clip-path="url(#608d98683a)"
     id="g4"
     transform="scale(1.3333333)"><path
       id="path4"
       d="m 192,23.249999 c -8.0156,0 -16.03126,3.058605 -22.14843,9.175781 L 32.444825,169.85155 c -12.23435,12.23436 -12.23435,32.04348 0,44.2544 L 169.89405,351.55516 c 12.23434,12.23435 32.03958,12.23435 44.25439,0 L 351.59327,214.10595 c 12.23435,-12.23436 12.23435,-32.03957 0,-44.2544 L 214.14844,32.42578 C 208.03127,26.308604 200.01562,23.249999 192,23.249999 Z m 0,20.863768 c 2.67969,0 5.33595,1.031254 7.38282,3.058594 L 336.82765,184.61718 c 0.48436,0.48437 0.91796,1.01172 1.30078,1.58203 0.3789,0.57031 0.70361,1.17187 0.96533,1.80469 0.26172,0.63281 0.46045,1.28564 0.59326,1.96142 0.13281,0.67188 0.19922,1.34717 0.19922,2.03467 0,0.68359 -0.0664,1.36279 -0.19922,2.03467 -0.13281,0.67578 -0.33154,1.32861 -0.59326,1.96142 -0.26172,0.63282 -0.58643,1.23438 -0.96533,1.80469 -0.38282,0.57031 -0.81642,1.09766 -1.30078,1.58203 L 199.38282,336.82762 c -0.97656,0.98438 -2.10547,1.73926 -3.38672,2.27051 -1.27734,0.52734 -2.60938,0.79198 -3.9961,0.78808 z m -50.32763,90.789543 c 5.83982,0 11.67726,2.22754 16.1206,6.68262 8.91013,8.90623 8.91013,23.34816 0,32.25439 l -18.07763,18.08936 18.07763,18.09375 c 8.91013,8.90623 8.91013,23.34816 0,32.25439 -4.4492,4.46094 -10.28956,6.68262 -16.12939,6.68262 -5.83984,0 -11.67874,-2.22168 -16.12793,-6.68262 L 75.187502,191.92968 125.53565,141.58593 c 4.45506,-4.45508 10.29688,-6.68262 16.13672,-6.68262 z m 100.65527,0 c -5.83983,0 -11.67726,2.22754 -16.1206,6.68262 -8.91014,8.90623 -8.91014,23.34816 0,32.25439 l 18.07763,18.08936 -18.07763,18.09375 c -8.91014,8.90623 -8.91014,23.34816 0,32.25439 4.4492,4.46094 10.28956,6.68262 16.12939,6.68262 5.83984,0 11.67873,-2.22168 16.12793,-6.68262 l 50.34815,-50.34814 -50.34815,-50.34375 c -4.45506,-4.45508 -10.29688,-6.68262 -16.13672,-6.68262 z" /></g></svg>
